Coordinates
version=1
nRows=11
nColumns=36
inDegrees=yes

Units are S.I. units (second, meters, Newtons, ...)
If the header above contains a line with 'inDegrees', this indicates whether rotational values are in degrees (yes) or radians (no).

endheader
time	pelvis_tilt	pelvis_list	pelvis_rotation	pelvis_tx	pelvis_ty	pelvis_tz	hip_flexion_r	hip_adduction_r	hip_rotation_r	knee_angle_r	knee_angle_r_beta	ankle_angle_r	subtalar_angle_r	mtp_angle_r	hip_flexion_l	hip_adduction_l	hip_rotation_l	knee_angle_l	knee_angle_l_beta	ankle_angle_l	subtalar_angle_l	mtp_angle_l	lumbar_extension	lumbar_bending	lumbar_rotation	arm_flex_r	arm_add_r	arm_rot_r	elbow_flex_r	pro_sup_r	arm_flex_l	arm_add_l	arm_rot_l	elbow_flex_l	pro_sup_l
      0.00000000	    -18.52043898	     -4.70257260	    -11.91107859	      1.32879876	      0.77249982	      0.10490884	     63.91044503	     11.32655189	     -7.25228233	     73.01529391	      1.27435728	     23.69428786	      0.94198352	     -7.24750990	     82.85125843	    -10.80556631	      8.46731095	     44.99010891	      0.78522553	      5.81378104	     -8.54702952	     -7.24750990	    -33.51739225	      9.62113080	      7.59374603	     83.65704482	    -15.82542129	     73.55668216	    129.34269042	     83.48881234	     62.17429753	    -18.55066159	     74.44216353	    122.96477346	     98.76930996
      0.01666670	    -24.65652281	     -5.55165030	    -14.42494408	      1.33613068	      0.76461398	      0.10905344	     72.05900075	     13.64345022	    -11.09676962	     75.05669340	      1.30998643	     21.39765321	     -2.62017131	     -7.24123192	     90.53272895	    -12.33914576	     14.36606136	     44.84286383	      0.78265562	      5.40369163	     -3.40032628	     -7.24123192	    -28.08787931	      9.47019992	     13.29189994	     80.53738513	    -13.87024990	     76.58047046	    131.73019207	     86.53567917	     64.18538208	    -15.60923708	     81.54009646	    124.75486629	    101.92161117
      0.03333330	    -28.08206235	     -3.15042188	    -16.32012508	      1.34213990	      0.75717690	      0.11195902	     77.29979818	     12.89510256	    -12.48247158	     77.53418296	      1.35322678	     25.36493358	     -0.12609323	     -7.26588597	     94.29000972	    -14.26013884	     12.95493300	     43.02170587	      0.75087042	      1.29669185	     -2.01640996	     -7.26588597	    -21.55452673	      6.86418071	     14.35654725	     73.55954564	    -11.75196625	     71.69827018	    130.91651656	     85.30176558	     61.29790600	    -12.17343898	     81.77050715	    123.97232792	    100.54658829
      0.05000000	    -30.71835327	     -1.14419303	    -16.81195547	      1.34932732	      0.75189535	      0.11062162	     80.38353670	     12.45059243	    -12.64711824	     78.83248850	      1.37588648	     29.35562580	      2.11009727	     -7.32694896	     97.21459494	    -14.96262401	     10.87332955	     42.77471781	      0.74655966	     -0.30061794	      1.15370402	     -7.32694896	    -15.90222793	      4.87928689	     15.28155468	     69.13591469	    -13.40157087	     70.54954600	    131.78251322	     86.17048578	     60.03227997	     -8.32716371	     81.90030275	    121.89608440	    107.54939697
      0.06666670	    -32.38358427	     -0.11488711	    -16.42373160	      1.34602484	      0.75417740	      0.11356762	     81.89005777	     11.98239583	    -12.68103858	     79.17969524	      1.38194638	     32.01140658	      3.53059393	     -7.33074687	     98.65599860	    -14.95250452	      9.08264614	     42.27518955	      0.73784125	     -0.63351893	      4.83299217	     -7.33074687	    -12.67090679	      3.96156872	     14.93304358	     67.95030301	    -14.04403382	     71.94160779	    131.24071002	     85.97097916	     59.94526111	     -6.97435238	     81.79230833	    121.25342976	    107.22323721
      0.08333330	    -33.62685633	      0.14763404	    -15.84296586	      1.34682052	      0.75869218	      0.11298950	     82.31833551	     11.91598050	    -12.45634015	     78.80239777	      1.37536130	     33.99822750	      4.85244170	     -7.38248466	     99.40824790	    -14.64930134	      8.12869700	     41.36100863	      0.72188578	     -1.11630519	      7.83054758	     -7.38248466	    -10.29349574	      3.80828746	     14.56587952	     66.65213057	    -15.12949190	     72.00758072	    131.30180954	     82.03954405	     59.92141495	     -6.30875572	     82.09191747	    121.34055453	    102.57932962
      0.10000000	    -34.37439586	     -0.01292350	    -15.04062522	      1.35709055	      0.76115312	      0.11328610	     82.06909220	     11.89720708	    -12.08987197	     78.15510449	      1.36406390	     35.31871528	      5.49405169	     -7.38603669	     99.51543683	    -14.07877765	      7.58766191	     40.59647007	      0.70854207	     -1.19753367	     10.39131690	     -7.38603669	     -8.40508250	      4.16516038	     13.26093321	     65.14647903	    -15.08804724	     72.30757283	    131.56472404	     82.00459247	     58.79947454	     -6.69911960	     81.33558669	    122.18831956	    102.27611764
      0.11666670	    -34.85075926	     -0.24417500	    -14.08834555	      1.35728247	      0.76956021	      0.11156641	     81.33422975	     11.83600809	    -11.53848597	     77.17007481	      1.34687189	     36.14913365	      5.82104390	     -7.38913847	     99.14157024	    -13.24940055	      7.26996883	     39.65538572	      0.69211705	     -1.70254847	     11.91073042	     -7.38913847	     -7.12648945	      4.63445499	     12.12968126	     64.20547354	    -14.58097478	     75.25336483	    132.00565295	     82.28139025	     57.43811505	     -6.47991931	     81.28158327	    121.88124851	    101.88815706
      0.13333330	    -34.70419321	     -0.71661282	    -13.22540120	      1.35340432	      0.78159261	      0.11309881	     80.03478573	     11.91894771	    -11.06516758	     75.73745451	      1.32186795	     36.01467369	      5.41550463	     -7.40755596	     98.08554881	    -12.51699224	      7.15950609	     38.76304373	      0.67654274	     -2.51585430	     12.62579239	     -7.40755596	     -7.33102919	      5.17407325	     10.94690611	     64.33166491	    -15.13136407	     75.58316129	    130.28186992	     80.39826885	     56.84516360	     -7.44749297	     81.19901250	    121.25404981	     98.04100257
      0.15000000	    -34.31105048	     -1.17164322	    -12.32770416	      1.35907784	      0.78377940	      0.11627758	     78.52170154	     12.07206527	    -10.56555193	     74.57875539	      1.30164483	     36.24655958	      5.54374017	     -7.41408380	     97.14061735	    -11.90327901	      7.12728753	     38.56151474	      0.67302540	     -2.82526179	     13.14225815	     -7.41408380	     -6.87308243	      5.40708384	     10.07527222	     63.73583070	    -14.44337954	     74.92639559	    131.07685785	     79.87800021	     56.86631318	     -7.50917930	     80.98432674	    124.03120068	     97.44393090
      0.16666670	    -34.05735245	     -1.46136134	    -11.38085318	      1.35971254	      0.79106800	      0.11526823	     77.47789168	     11.90037646	    -10.13021598	     73.52287166	      1.28321619	     35.73446376	      5.14682257	     -7.41479722	     96.30493793	    -11.14966910	      6.84455899	     38.43948209	      0.67089553	     -3.13114622	     13.71334338	     -7.41479722	     -6.49246473	      5.51329911	      9.09361904	     63.39164011	    -14.22591411	     74.66064897	    131.57819403	     79.95764245	     57.27760786	     -7.26472943	     80.03694531	    124.94745953	     97.38633102
